HIERARCHY
ROOT SpineBase
{
  OFFSET 0.000000 0.000000 0.000000
  CHANNELS 6 Xposition Yposition Zposition Zrotation Xrotation Yrotation
  JOINT SpineMid
  {
    OFFSET 0.000000 34.207580 0.000000
    CHANNELS 3 Zrotation Xrotation Yrotation
    JOINT SpineShoulder
    {
      OFFSET -0.032453 25.549342 -0.737170
      CHANNELS 3 Zrotation Xrotation Yrotation
      JOINT Neck
      {
        OFFSET -0.019514 8.487491 -0.557515
        CHANNELS 3 Zrotation Xrotation Yrotation
        JOINT Head
        {
          OFFSET -0.294758 11.788169 0.912498
          CHANNELS 3 Zrotation Xrotation Yrotation
          End Site
          {
            OFFSET 0 0 0
          }
        }
      }
      JOINT ShoulderLeft
      {
        OFFSET -15.514730 -7.357108 -4.672434
        CHANNELS 3 Zrotation Xrotation Yrotation
        JOINT ElbowLeft
        {
          OFFSET -3.805321 -24.271520 4.154582
          CHANNELS 3 Zrotation Xrotation Yrotation
          JOINT WristLeft
          {
            OFFSET -0.582088 -18.389464 1.141250
            CHANNELS 3 Zrotation Xrotation Yrotation
            JOINT HandLeft
            {
              OFFSET 1.659580 -7.506541 -0.687507
              CHANNELS 3 Zrotation Xrotation Yrotation
              JOINT HandTipLeft
              {
                OFFSET -2.061173 -8.619829 4.073868
                CHANNELS 3 Zrotation Xrotation Yrotation
                End Site
                {
                  OFFSET 0 0 0
                }
              }
              JOINT ThumbLeft
              {
                OFFSET -2.683031 5.071483 1.849140
                CHANNELS 3 Zrotation Xrotation Yrotation
                End Site
                {
                  OFFSET 0 0 0
                }
              }
            }
          }
        }
      }
      JOINT ShoulderRight
      {
        OFFSET 14.942471 -5.818915 -6.048302
        CHANNELS 3 Zrotation Xrotation Yrotation
        JOINT ElbowRight
        {
          OFFSET 6.633307 -23.880229 3.018580
          CHANNELS 3 Zrotation Xrotation Yrotation
          JOINT WristRight
          {
            OFFSET 1.740101 -19.647767 7.355109
            CHANNELS 3 Zrotation Xrotation Yrotation
            JOINT HandRight
            {
              OFFSET -1.250915 -5.218515 4.777695
              CHANNELS 3 Zrotation Xrotation Yrotation
              JOINT HandTipRight
              {
                OFFSET 0.373938 -6.106663 2.112819
                CHANNELS 3 Zrotation Xrotation Yrotation
                End Site
                {
                  OFFSET 0 0 0
                }
              }
              JOINT ThumbRight
              {
                OFFSET 1.662642 -2.255752 0.069536
                CHANNELS 3 Zrotation Xrotation Yrotation
                End Site
                {
                  OFFSET 0 0 0
                }
              }
            }
          }
        }
      }
    }
  }
  JOINT HipLeft
  {
    OFFSET -7.907670 1.252722 -2.900428
    CHANNELS 3 Zrotation Xrotation Yrotation
    JOINT KneeLeft
    {
      OFFSET -3.297850 -27.941202 -1.486499
      CHANNELS 3 Zrotation Xrotation Yrotation
      JOINT AnkleLeft
      {
        OFFSET -0.469961 -35.646679 0.418994
        CHANNELS 3 Zrotation Xrotation Yrotation
        JOINT FootLeft
        {
          OFFSET -0.275331 -2.697642 -11.475946
          CHANNELS 3 Zrotation Xrotation Yrotation
          End Site
          {
            OFFSET 0 0 0
          }
        }
      }
    }
  }
  JOINT HipRight
  {
    OFFSET 7.544989 1.415674 -3.331076
    CHANNELS 3 Zrotation Xrotation Yrotation
    JOINT KneeRight
    {
      OFFSET 3.402788 -25.032682 -0.834462
      CHANNELS 3 Zrotation Xrotation Yrotation
      JOINT AnkleRight
      {
        OFFSET -0.131096 -35.664565 0.295447
        CHANNELS 3 Zrotation Xrotation Yrotation
        JOINT FootRight
        {
          OFFSET 0.466425 -4.429133 -2.297537
          CHANNELS 3 Zrotation Xrotation Yrotation
          End Site
          {
            OFFSET 0 0 0
          }
        }
      }
    }
  }
}
MOTION
Frames: 10
Frame Time: 0.033333
16.770017 69.392558 287.586942 -0.326973 -0.521323 2.877623 0.352745 0.504241 -2.880663 -0.000000 0.000000 0.000000 -1.126950 0.112169 0.091161 0.000000 0.000000 0.000000 -1.401738 -0.726599 -0.134515 -0.077255 -1.798043 0.090876 -9.063300 -1.590080 0.127324 16.204142 11.770932 -0.455838 0.000000 0.000000 0.000000 0.000000 0.000000 0.000000 -2.538230 4.319188 0.985904 0.451281 5.695647 -0.689989 3.772566 9.423275 -3.669624 -4.867840 -11.092481 1.697202 0.000000 0.000000 0.000000 0.000000 0.000000 0.000000 -0.158599 1.161261 -2.918691 -0.240375 0.260912 0.024956 0.866218 -7.768254 0.529749 0.000000 0.000000 0.000000 -0.813639 1.023730 -2.762699 1.190056 -0.462458 -0.097608 -9.388045 48.435655 11.830975 0.000000 0.000000 0.000000
16.734559 69.499343 287.528495 -0.246987 -0.535101 2.918141 0.273919 0.521828 -2.920542 -0.000000 0.000000 0.000000 -0.098010 -2.370622 -0.053813 0.000000 0.000000 0.000000 -1.299051 -0.965143 -0.081728 -0.736553 -2.090919 0.010215 -7.372267 0.165428 0.474195 15.210355 10.814896 -0.387784 0.000000 0.000000 0.000000 0.000000 0.000000 0.000000 -2.519830 3.902008 0.860522 0.633428 5.212365 -0.586052 3.210387 10.058296 -4.028649 -3.535427 -12.402209 2.476741 0.000000 0.000000 0.000000 0.000000 0.000000 0.000000 0.273919 0.521828 -2.920542 -0.748157 0.922402 -0.014933 0.987539 -17.357224 1.962574 0.000000 0.000000 0.000000 -0.845384 0.872054 -2.829161 1.135189 -0.294392 -0.074850 -9.924291 48.374814 12.250258 0.000000 0.000000 0.000000
16.625942 69.577494 287.423703 0.034145 -0.749054 2.873990 0.194282 -0.112070 -2.869188 0.076697 0.085603 0.012162 0.426114 -3.761151 -0.168106 0.000000 0.000000 0.000000 -1.079215 -0.658181 0.075600 -1.715666 -1.810008 -0.160823 -6.471095 0.611793 0.533213 15.435267 11.904044 -0.515149 0.000000 0.000000 0.000000 0.000000 0.000000 0.000000 -2.449246 4.022092 0.713440 0.351621 5.000711 -0.507146 2.944860 11.571611 -4.424537 -3.156610 -14.293455 2.788308 0.000000 0.000000 0.000000 0.000000 0.000000 0.000000 0.003454 0.749824 -2.873789 -0.721837 0.952676 -0.015044 2.232684 -36.261904 5.903615 0.000000 0.000000 0.000000 -0.982353 0.886827 -2.814713 0.991257 -0.088304 -0.044233 -8.671080 50.346359 11.501237 0.000000 0.000000 0.000000
16.477474 69.629529 287.279379 0.345714 -1.136461 2.679314 0.156705 -0.177973 -2.663697 0.188247 -0.089656 0.027992 1.226461 -4.789359 -0.282257 0.000000 0.000000 0.000000 -0.746850 -0.782279 0.298568 -2.564366 -0.991974 -0.367258 -6.273757 0.620111 0.541311 17.247890 14.273734 -0.645687 0.000000 0.000000 0.000000 0.000000 0.000000 0.000000 -2.456214 3.822510 0.500914 -0.100153 5.276534 -0.399350 3.179718 13.623239 -4.690842 -2.469304 -17.654974 3.253110 0.000000 0.000000 0.000000 0.000000 0.000000 0.000000 -0.292274 1.151362 -2.672949 -0.620980 0.903201 -0.014313 11.376497 -64.860439 18.530228 0.000000 0.000000 0.000000 -1.153546 1.236064 -2.620105 0.864064 -0.045112 -0.034561 -10.894479 47.576229 12.914389 0.000000 0.000000 0.000000
16.271468 69.643242 287.102503 1.083844 -1.970652 2.471938 0.276629 -0.499297 -2.415894 0.147126 -0.196556 0.056920 1.216012 -5.328518 -0.409644 0.000000 0.000000 0.000000 -0.710169 0.335939 0.422395 -2.571037 -1.184104 -0.465282 -7.880159 -0.471399 0.203601 19.447049 18.428548 -1.276929 0.000000 0.000000 0.000000 0.000000 0.000000 0.000000 -2.370965 3.855272 0.216038 -0.694842 6.363154 -0.060453 3.035948 15.234581 -5.219264 -2.072255 -16.697662 4.037062 0.000000 0.000000 0.000000 0.000000 0.000000 0.000000 -0.998476 2.015236 -2.435734 -0.438937 0.769145 -0.012354 89.283844 -81.506953 99.128017 0.000000 0.000000 0.000000 -0.998476 2.015236 -2.435734 -0.000000 0.000000 0.000000 -12.546587 44.767162 13.818945 0.000000 0.000000 0.000000
16.007320 69.627502 286.934397 2.083995 -3.093762 2.227060 0.420323 -0.833573 -2.096968 0.014212 -0.183213 0.093142 1.108616 -6.327295 -0.544450 0.000000 0.000000 0.000000 -0.988408 2.573106 0.347697 -1.959471 -2.882226 -0.372963 -10.621602 -3.084951 -0.672159 23.779184 24.816122 -2.157056 0.000000 0.000000 0.000000 0.000000 0.000000 0.000000 -2.540867 4.100454 -0.066683 -1.038742 7.262526 0.329212 3.526775 14.897070 -4.216932 -5.162795 -12.329254 1.803881 0.000000 0.000000 0.000000 0.000000 0.000000 0.000000 -1.965270 3.170463 -2.116382 -0.000000 0.000000 0.000000 137.408828 -74.346969 148.735491 0.000000 0.000000 0.000000 -2.308115 2.185812 -2.225715 0.303867 0.997243 0.122709 -13.984736 42.157449 14.545407 0.000000 0.000000 0.000000
15.710227 69.612774 286.807377 3.213852 -4.324453 2.274250 0.505671 -1.091976 -2.037242 -0.136177 -0.106557 0.132850 0.831083 -7.249028 -0.654850 0.000000 0.000000 0.000000 -1.267299 4.706354 0.267301 -0.959548 -4.971137 -0.189847 -12.687859 -1.976280 -0.522210 24.240188 24.008990 -1.770273 0.000000 0.000000 0.000000 0.000000 0.000000 0.000000 -2.299431 3.773701 -0.473310 -2.160666 8.969997 0.768934 4.910342 15.142070 -2.739290 -5.941936 -7.599910 0.946179 0.000000 0.000000 0.000000 0.000000 0.000000 0.000000 -3.049057 4.442072 -2.034594 -0.000000 0.000000 0.000000 149.334234 -65.417350 161.759659 0.000000 0.000000 0.000000 -3.013480 2.504800 -2.303372 0.526327 2.883690 0.243498 -14.758078 39.400927 14.201198 0.000000 0.000000 0.000000
15.347298 69.557862 286.713602 4.395660 -5.700391 2.196055 0.521461 -1.284546 -1.817131 -0.268500 -0.042285 0.174649 1.346979 -8.236020 -0.801036 0.000000 0.000000 0.000000 -1.501545 6.587091 0.229474 0.532873 -6.934349 0.076215 -17.178805 -2.905811 -0.764918 29.500132 28.272828 -2.917323 0.000000 0.000000 0.000000 0.000000 0.000000 0.000000 -2.076159 3.440200 -0.902657 -2.896364 9.947365 1.286074 5.935848 19.009556 -2.603326 -5.858733 -7.816770 1.000508 0.000000 0.000000 0.000000 0.000000 0.000000 0.000000 -4.196266 5.848507 -1.762654 -0.000000 0.000000 0.000000 143.377626 -71.755599 154.624902 0.000000 0.000000 0.000000 -3.832988 2.833076 -2.213759 0.627063 4.289118 0.370361 -14.373731 38.189936 13.365075 0.000000 0.000000 0.000000
14.920019 69.458899 286.671898 5.482039 -7.040693 2.085075 0.461002 -1.343788 -1.548440 -0.366898 0.024017 0.211453 2.366279 -9.404071 -0.946809 0.000000 0.000000 0.000000 -1.572819 8.002899 0.230291 1.338046 -8.039121 0.227389 -17.715862 -2.542358 -0.890550 27.848154 27.007408 -1.985787 0.000000 0.000000 0.000000 0.000000 0.000000 0.000000 -1.906554 3.013829 -1.313847 -2.994722 10.222668 1.851949 5.615194 21.129102 -2.836244 -7.163404 -6.927349 0.081059 0.000000 0.000000 0.000000 0.000000 0.000000 0.000000 -4.543559 8.184256 -1.666945 -0.686676 -0.999656 0.148496 126.928445 -80.891626 134.344268 0.000000 0.000000 0.000000 -4.503790 3.179428 -2.058112 0.483907 5.418022 0.497450 -12.628898 38.304555 11.876453 0.000000 0.000000 0.000000
14.472428 69.341613 286.653681 6.351313 -8.284523 1.818962 0.340158 -1.309580 -1.129151 -0.416701 0.039065 0.240490 3.863483 -10.481811 -1.098362 0.000000 0.000000 0.000000 -1.456468 8.988669 0.269442 1.814562 -8.673323 0.283644 -17.054737 -0.329538 -0.535690 23.995178 22.932895 -0.512838 0.000000 0.000000 0.000000 0.000000 0.000000 0.000000 -1.292346 2.154223 -1.782060 -3.421355 10.694617 2.452465 6.730903 21.686902 -1.017602 -7.972526 -7.863338 -2.013461 0.000000 0.000000 0.000000 0.000000 0.000000 0.000000 -5.163366 9.804818 -1.276055 0.064371 -1.718517 0.246935 12.912497 -74.662220 17.529597 0.000000 0.000000 0.000000 -5.024226 3.563224 -1.722324 0.593845 6.474440 0.579462 -10.882163 39.220901 10.353820 0.000000 0.000000 0.000000
